<svg viewBox="0 0 24 24" xmlns="http://www.w3.org/2000/svg">
  <g fill="#D97757">
    <rect x="10.8" y="2" width="2.4" height="20" rx="1.2"/>
    <rect x="10.8" y="2" width="2.4" height="20" rx="1.2" transform="rotate(45 12 12)"/>
    <rect x="10.8" y="2" width="2.4" height="20" rx="1.2" transform="rotate(90 12 12)"/>
    <rect x="10.8" y="2" width="2.4" height="20" rx="1.2" transform="rotate(135 12 12)"/>
    <rect x="10.8" y="2" width="2.4" height="20" rx="1.2" transform="rotate(22.5 12 12)"/>
    <rect x="10.8" y="2" width="2.4" height="20" rx="1.2" transform="rotate(67.5 12 12)"/>
    <rect x="10.8" y="2" width="2.4" height="20" rx="1.2" transform="rotate(112.5 12 12)"/>
    <rect x="10.8" y="2" width="2.4" height="20" rx="1.2" transform="rotate(157.5 12 12)"/>
  </g>
</svg>
